<?xml version="1.0" standalone="no"?><!DOCTYPE svg PUBLIC "-//W3C//DTD SVG 1.1//EN" "http://www.w3.org/Graphics/SVG/1.1/DTD/svg11.dtd"><svg t="1508753256137" class="icon" style="" viewBox="0 0 1024 1024" version="1.1" xmlns="http://www.w3.org/2000/svg" p-id="2461" xmlns:xlink="http://www.w3.org/1999/xlink" width="200" height="200"><defs><style type="text/css"></style></defs><path d="M408.102406 60.223765H30.117882v787.594923h377.984524c48.005812 0 88.385655 32.563873 100.311608 76.7977h3.595986V164.131359c0-57.385776-46.519818-103.907594-103.907594-103.907594z" fill="#CEE8FA" p-id="2462"></path><path d="M512.01 954.734271h-3.593986a30.113882 30.113882 0 0 1-29.079886-22.275913c-8.655966-32.099875-37.949852-54.523787-71.231722-54.523787H30.117882C13.483947 877.936571 0 864.448623 0 847.818688V60.223765c0-16.631935 13.483947-30.117882 30.117882-30.117883h377.984524c73.903711 0 134.025476 60.125765 134.025476 134.025477V924.616388c0 16.633935-13.485947 30.117882-30.117882 30.117883zM60.235765 817.698806h347.866641c26.925895 0 52.407795 8.079968 73.789712 22.197913V164.131359c0-40.689841-33.103871-73.789712-73.789712-73.789712H60.235765v727.357159z" fill="#2D527C" p-id="2463"></path><path d="M377.480525 392.020469H164.647357c-16.633935 0-30.117882-13.485947-30.117883-30.117883 0-16.631935 13.483947-30.117882 30.117883-30.117882h212.837168c16.633935 0 30.117882 13.485947 30.117883 30.117882 0 16.631935-13.487947 30.117882-30.121883 30.117883zM377.480525 586.789708H164.647357c-16.633935 0-30.117882-13.485947-30.117883-30.117882 0-16.631935 13.483947-30.117882 30.117883-30.117883h212.837168c16.633935 0 30.117882 13.485947 30.117883 30.117883 0 16.629935-13.487947 30.117882-30.121883 30.117882zM515.581986 954.734271h-3.593986c-16.633935 0-30.117882-13.485947-30.117882-30.117883V164.131359c0-73.901711 60.125765-134.025476 134.025476-134.025477h377.984524c16.631935 0 30.117882 13.487947 30.117882 30.117883v504.986027c0 16.631935-13.485947 30.117882-30.117882 30.117883-16.631935 0-30.117882-13.485947-30.117883-30.117883V90.341647H615.897594c-40.689841 0-73.789712 33.099871-73.789712 73.789712V839.896719c21.379916-14.119945 46.863817-22.197913 73.789712-22.197913h347.866641V715.797204c0-16.631935 13.485947-30.117882 30.117883-30.117882 16.631935 0 30.117882 13.485947 30.117882 30.117882v132.019484c0 16.631935-13.485947 30.117882-30.117882 30.117883H615.897594c-33.28587 0-62.575756 22.419912-71.231722 54.523787a30.127882 30.127882 0 0 1-29.083886 22.275913z" fill="#2D527C" p-id="2464"></path><path d="M859.348643 309.69879H646.515475c-16.631935 0-30.117882-13.485947-30.117883-30.117882 0-16.631935 13.485947-30.117882 30.117883-30.117882h212.833168c16.631935 0 30.117882 13.485947 30.117883 30.117882 0 16.629935-13.483947 30.117882-30.117883 30.117882zM859.348643 489.404088H646.515475c-16.631935 0-30.117882-13.485947-30.117883-30.117882 0-16.631935 13.485947-30.117882 30.117883-30.117882h212.833168c16.631935 0 30.117882 13.485947 30.117883 30.117882 0 16.631935-13.483947 30.117882-30.117883 30.117882zM859.348643 669.111386H646.515475c-16.631935 0-30.117882-13.485947-30.117883-30.117882s13.485947-30.117882 30.117883-30.117882h212.833168c16.631935 0 30.117882 13.485947 30.117883 30.117882s-13.483947 30.117882-30.117883 30.117882zM935.912344 993.894118H88.083656c-16.633935 0-30.117882-13.485947-30.117882-30.117883 0-16.631935 13.483947-30.117882 30.117882-30.117882h847.828688c16.631935 0 30.117882 13.485947 30.117882 30.117882 0 16.631935-13.483947 30.117882-30.117882 30.117883z" fill="#2D527C" p-id="2465"></path></svg>